<svg width="537.0974609374999px" height="150.815234375px" xmlns="http://www.w3.org/2000/svg" viewBox="-18.548730468749966 -0.4076171874999943 537.0974609374999 150.815234375" style="background: rgba(0, 0, 0, 0);" preserveAspectRatio="xMidYMid"><defs><linearGradient id="editing-gradient-gradient" x1="0" x2="1" y1="0.5" y2="0.5" gradientUnits="objectBoundingBox"><stop offset="0" stop-color="#f0f"></stop><stop offset="1" stop-color="#0ff"></stop></linearGradient></defs><g><g transform="translate(60.304999351501465, 108.56500244140625)"><path d="M11.65 0L0.96 0L6.27-54.98L24.90-54.98L30.14 0L19.71 0L18.94-8.90L12.29-8.90L11.65 0ZM15.17-45.63L13.12-17.66L18.11-17.66L15.68-45.63L15.17-45.63ZM33.28 9.34L33.28-46.85L44.67-46.85L44.67-44.35L44.67-44.35Q47.10-47.36 51.39-47.36L51.39-47.36L51.39-47.36Q56.83-47.36 58.98-43.71L58.98-43.71L58.98-43.71Q61.12-40.06 61.12-33.60L61.12-33.60L61.12-16.26L61.12-16.26Q61.12-10.75 60.48-7.26L60.48-7.26L60.48-7.26Q59.84-3.78 57.66-1.63L57.66-1.63L57.66-1.63Q55.49 0.51 51.07 0.51L51.07 0.51L51.07 0.51Q46.85 0.51 44.67-1.86L44.67-1.86L44.67 9.34L33.28 9.34ZM47.36-8.19L47.36-8.19Q48.90-8.19 49.34-9.60L49.34-9.60L49.34-9.60Q49.79-11.01 49.79-13.70L49.79-13.70L49.79-33.60L49.79-33.60Q49.79-36.03 49.34-37.31L49.34-37.31L49.34-37.31Q48.90-38.59 47.30-38.59L47.30-38.59L47.30-38.59Q44.67-38.59 44.67-33.73L44.67-33.73L44.67-13.18L44.67-13.18Q44.67-10.82 45.22-9.50L45.22-9.50L45.22-9.50Q45.76-8.19 47.36-8.19L47.36-8.19ZM76.42-49.98L65.22-49.98L65.22-57.79L76.42-57.79L76.42-49.98ZM76.42 0L65.22 0L65.22-46.85L76.42-46.85L76.42 0ZM94.91 0.51L94.91 0.51Q87.23 0.51 83.84-3.39L83.84-3.39L83.84-3.39Q80.45-7.30 80.45-15.36L80.45-15.36L80.45-29.82L80.45-29.82Q80.45-35.90 81.76-39.71L81.76-39.71L81.76-39.71Q83.07-43.52 86.18-45.44L86.18-45.44L86.18-45.44Q89.28-47.36 94.78-47.36L94.78-47.36L94.78-47.36Q100.80-47.36 104.58-44.22L104.58-44.22L104.58-44.22Q108.35-41.09 108.35-35.46L108.35-35.46L108.35-28.29L96.96-28.29L96.96-34.88L96.96-34.88Q96.96-36.74 96.45-37.73L96.45-37.73L96.45-37.73Q95.94-38.72 94.46-38.72L94.46-38.72L94.46-38.72Q91.71-38.72 91.71-34.82L91.71-34.82L91.71-12.10L91.71-12.10Q91.71-10.50 92.38-9.38L92.38-9.38L92.38-9.38Q93.06-8.26 94.40-8.26L94.40-8.26L94.40-8.26Q95.74-8.26 96.42-9.34L96.42-9.34L96.42-9.34Q97.09-10.43 97.02-12.16L97.02-12.16L96.96-20.03L108.35-20.03L108.35-11.84L108.35-11.84Q108.35-6.08 104.61-2.78L104.61-2.78L104.61-2.78Q100.86 0.51 94.91 0.51L94.91 0.51ZM112.26 0L112.26-55.30L123.78-55.30L123.78-42.24L123.78-42.24Q125.57-47.36 130.62-47.36L130.62-47.36L130.62-47.36Q135.36-47.36 137.79-44.35L137.79-44.35L137.79-44.35Q140.22-41.34 140.22-36.10L140.22-36.10L140.22 0L129.02 0L129.02-35.39L129.02-35.39Q129.02-36.93 128.32-37.89L128.32-37.89L128.32-37.89Q127.62-38.85 126.27-38.85L126.27-38.85L126.27-38.85Q125.12-38.85 124.45-37.86L124.45-37.86L124.45-37.86Q123.78-36.86 123.78-35.46L123.78-35.46L123.78 0L112.26 0ZM153.09 0.51L153.09 0.51Q147.65 0.51 145.63-3.10L145.63-3.10L145.63-3.10Q143.62-6.72 143.62-13.44L143.62-13.44L143.62-13.44Q143.62-18.94 145.06-21.89L145.06-21.89L145.06-21.89Q146.50-24.83 149.06-26.21L149.06-26.21L149.06-26.21Q151.62-27.58 156.86-29.25L156.86-29.25L159.94-30.27L159.94-30.40L159.94-35.07L159.94-35.07Q159.94-36.93 159.20-37.92L159.20-37.92L159.20-37.92Q158.46-38.91 157.44-38.91L157.44-38.91L157.44-38.91Q156.54-38.91 155.87-38.08L155.87-38.08L155.87-38.08Q155.20-37.25 155.20-35.84L155.20-35.84L155.20-33.02L144.32-33.02L144.32-34.56L144.32-34.56Q144.32-41.47 147.55-44.42L147.55-44.42L147.55-44.42Q150.78-47.36 158.08-47.36L158.08-47.36L158.08-47.36Q163.90-47.36 167.55-44.32L167.55-44.32L167.55-44.32Q171.20-41.28 171.20-35.71L171.20-35.71L171.20 0L160.06 0L160.06-5.57L160.06-5.57Q159.23-2.69 157.41-1.09L157.41-1.09L157.41-1.09Q155.58 0.51 153.09 0.51L153.09 0.51ZM157.50-8.19L157.50-8.19Q158.78-8.19 159.33-9.25L159.33-9.25L159.33-9.25Q159.87-10.30 159.87-11.84L159.87-11.84L159.87-24.90L159.87-24.90Q157.38-23.94 156.19-22.46L156.19-22.46L156.19-22.46Q155.01-20.99 155.01-18.37L155.01-18.37L155.01-12.35L155.01-12.35Q155.01-8.19 157.50-8.19L157.50-8.19ZM186.62-49.98L175.42-49.98L175.42-57.79L186.62-57.79L186.62-49.98ZM186.62 0L175.42 0L175.42-46.85L186.62-46.85L186.62 0ZM206.21 0L206.21-54.98L221.12-54.98L221.12-54.98Q227.14-54.98 229.86-52.03L229.86-52.03L229.86-52.03Q232.58-49.09 232.58-42.43L232.58-42.43L232.58-40L232.58-40Q232.58-32.13 226.94-30.59L226.94-30.59L226.94-30.59Q230.40-29.70 231.81-26.43L231.81-26.43L231.81-26.43Q233.22-23.17 233.22-17.79L233.22-17.79L233.22-17.79Q233.22-9.02 230.59-4.51L230.59-4.51L230.59-4.51Q227.97 0 221.12 0L221.12 0L206.21 0ZM216.96-34.30L219.20-34.30L219.20-34.30Q220.61-34.30 221.12-35.36L221.12-35.36L221.12-35.36Q221.63-36.42 221.63-38.34L221.63-38.34L221.63-43.84L221.63-43.84Q221.63-46.53 219.26-46.53L219.26-46.53L216.96-46.53L216.96-34.30ZM218.05-9.66L218.05-9.66Q222.34-9.66 222.34-13.76L222.34-13.76L222.34-20.61L222.34-20.61Q222.34-23.10 221.60-24.38L221.60-24.38L221.60-24.38Q220.86-25.66 219.01-25.66L219.01-25.66L216.96-25.66L216.96-9.73L218.05-9.66ZM245.70 0.51L245.70 0.51Q240.45 0.51 238.50-2.62L238.50-2.62L238.50-2.62Q236.54-5.76 236.54-11.97L236.54-11.97L236.54-46.85L247.81-46.85L247.81-14.21L247.81-14.21Q247.81-13.76 247.81-11.81L247.81-11.81L247.81-11.81Q247.81-9.86 248.42-9.06L248.42-9.06L248.42-9.06Q249.02-8.26 250.30-8.26L250.30-8.26L250.30-8.26Q252.03-8.26 252.48-9.70L252.48-9.70L252.48-9.70Q252.93-11.14 252.93-13.82L252.93-13.82L252.93-14.21L252.99-46.85L264.13-46.85L264.13 0L252.93 0L252.93-4.99L252.93-4.99Q251.78-2.05 250.24-0.77L250.24-0.77L250.24-0.77Q248.70 0.51 245.70 0.51L245.70 0.51ZM278.27 0.51L278.27 0.51Q273.86 0.51 272.19-1.34L272.19-1.34L272.19-1.34Q270.53-3.20 270.53-7.30L270.53-7.30L270.53-36.54L267.39-36.54L267.39-45.06L270.53-45.06L270.53-54.98L281.41-54.98L281.41-45.06L284.61-45.06L284.61-36.54L281.41-36.54L281.41-10.24L281.41-10.24Q281.41-9.02 281.60-8.45L281.60-8.45L281.60-8.45Q281.79-7.87 282.62-7.87L282.62-7.87L282.62-7.87Q283.26-7.87 283.84-7.94L283.84-7.94L283.84-7.94Q284.42-8 284.61-8L284.61-8L284.61-0.32L284.61-0.32Q283.65-0.06 281.82 0.22L281.82 0.22L281.82 0.22Q280 0.51 278.27 0.51L278.27 0.51ZM297.34 0.51L297.34 0.51Q293.25 0.51 291.17-1.44L291.17-1.44L291.17-1.44Q289.09-3.39 288.42-6.62L288.42-6.62L288.42-6.62Q287.74-9.86 287.74-14.91L287.74-14.91L287.87-36.03L287.87-36.03Q287.87-41.02 290.40-44.19L290.40-44.19L290.40-44.19Q292.93-47.36 297.54-47.36L297.54-47.36L297.54-47.36Q302.08-47.36 304.32-44.35L304.32-44.35L304.32-55.30L315.52-55.30L315.52 0L304.32 0L304.32-4.99L304.32-4.99Q303.36-2.24 301.73-0.86L301.73-0.86L301.73-0.86Q300.10 0.51 297.34 0.51L297.34 0.51ZM301.63-8.26L301.63-8.26Q303.30-8.26 303.81-9.89L303.81-9.89L303.81-9.89Q304.32-11.52 304.32-14.27L304.32-14.27L304.32-16.26L304.32-33.86L304.32-33.86Q304.32-35.90 303.74-37.31L303.74-37.31L303.74-37.31Q303.17-38.72 301.70-38.72L301.70-38.72L301.70-38.72Q300.03-38.72 299.49-37.41L299.49-37.41L299.49-37.41Q298.94-36.10 298.94-33.86L298.94-33.86L298.94-14.14L298.94-14.14Q298.94-8.26 301.63-8.26L301.63-8.26ZM333.12 0.51L333.12 0.51Q325.89 0.51 322.75-3.46L322.75-3.46L322.75-3.46Q319.62-7.42 319.62-15.30L319.62-15.30L319.62-34.11L319.62-34.11Q319.62-40.58 323.33-43.97L323.33-43.97L323.33-43.97Q327.04-47.36 333.70-47.36L333.70-47.36L333.70-47.36Q347.20-47.36 347.20-34.11L347.20-34.11L347.20-30.72L347.20-30.72Q347.20-25.60 347.07-22.40L347.07-22.40L330.82-22.40L330.82-13.31L330.82-13.31Q330.82-10.88 331.33-9.50L331.33-9.50L331.33-9.50Q331.84-8.13 333.50-8.13L333.50-8.13L333.50-8.13Q334.78-8.13 335.33-8.90L335.33-8.90L335.33-8.90Q335.87-9.66 335.97-10.66L335.97-10.66L335.97-10.66Q336.06-11.65 336.06-13.57L336.06-13.57L336.06-18.11L347.20-18.11L347.20-15.42L347.20-15.42Q347.20-7.23 344.03-3.36L344.03-3.36L344.03-3.36Q340.86 0.51 333.12 0.51L333.12 0.51ZM330.75-27.97L336.06-27.97L336.06-33.98L336.06-33.98Q336.06-39.04 333.57-39.04L333.57-39.04L333.57-39.04Q330.75-39.04 330.75-33.98L330.75-33.98L330.75-27.97ZM364.35 0.51L364.35 0.51Q357.12 0.51 353.98-3.46L353.98-3.46L353.98-3.46Q350.85-7.42 350.85-15.30L350.85-15.30L350.85-34.11L350.85-34.11Q350.85-40.58 354.56-43.97L354.56-43.97L354.56-43.97Q358.27-47.36 364.93-47.36L364.93-47.36L364.93-47.36Q378.43-47.36 378.43-34.11L378.43-34.11L378.43-30.72L378.43-30.72Q378.43-25.60 378.30-22.40L378.30-22.40L362.05-22.40L362.05-13.31L362.05-13.31Q362.05-10.88 362.56-9.50L362.56-9.50L362.56-9.50Q363.07-8.13 364.74-8.13L364.74-8.13L364.74-8.13Q366.02-8.13 366.56-8.90L366.56-8.90L366.56-8.90Q367.10-9.66 367.20-10.66L367.20-10.66L367.20-10.66Q367.30-11.65 367.30-13.57L367.30-13.57L367.30-18.11L378.43-18.11L378.43-15.42L378.43-15.42Q378.43-7.23 375.26-3.36L375.26-3.36L375.26-3.36Q372.10 0.51 364.35 0.51L364.35 0.51ZM361.98-27.97L367.30-27.97L367.30-33.98L367.30-33.98Q367.30-39.04 364.80-39.04L364.80-39.04L364.80-39.04Q361.98-39.04 361.98-33.98L361.98-33.98L361.98-27.97Z" fill="url(#editing-gradient-gradient)"></path></g></g><style>text {
  font-size: 64px;
  font-family: Arial Black;
  dominant-baseline: central;
  text-anchor: middle;
}</style></svg>